<?xml version="1.0" encoding="UTF-8"?>
<svg xmlns="http://www.w3.org/2000/svg" width="1080" height="1080" viewBox="0 0 1080 1080">
  
    <defs>
      <filter id="softShadow" x="-20%" y="-20%" width="140%" height="150%">
        <feDropShadow dx="0" dy="24" stdDeviation="28" flood-color="#2D2A26" flood-opacity=".12"/>
      </filter>
      <filter id="smallShadow" x="-20%" y="-20%" width="140%" height="150%">
        <feDropShadow dx="0" dy="12" stdDeviation="18" flood-color="#2D2A26" flood-opacity=".10"/>
      </filter>
    </defs>
  
  <rect width="1080" height="1080" fill="#FAFAF8" />
  <rect x="0" y="0" width="1080" height="220" fill="#F5F3F0" />
  <rect x="78" y="78" width="924" height="924" rx="46" fill="#FFFFFF" stroke="#E8E4E0" />
  <text x="120" y="150" font-family="Libre Franklin, Inter, -apple-system, BlinkMacSystemFont, Segoe UI, sans-serif" font-size="34" font-weight="800" fill="#2D2A26">ScholarMark</text>
  <text x="120" y="205" font-family="Source Serif 4, Georgia, serif" font-size="80" font-weight="800" fill="#2D2A26">Get ahead on</text>
  <text x="120" y="292" font-family="Source Serif 4, Georgia, serif" font-size="80" font-weight="800" fill="#D4556B">your thesis</text>
  <text x="120" y="362" font-family="Libre Franklin, Inter, -apple-system, BlinkMacSystemFont, Segoe UI, sans-serif" font-size="34" font-weight="600" fill="#2D2A26">this summer</text>
  <text x="150" y="470" text-anchor="start" font-family="Libre Franklin, Inter, -apple-system, BlinkMacSystemFont, Segoe UI, sans-serif" font-size="31" font-weight="700" fill="#2D2A26">Research question</text>
<text x="150" y="532" text-anchor="start" font-family="Libre Franklin, Inter, -apple-system, BlinkMacSystemFont, Segoe UI, sans-serif" font-size="31" font-weight="700" fill="#2D2A26">Working outline</text>
<text x="150" y="594" text-anchor="start" font-family="Libre Franklin, Inter, -apple-system, BlinkMacSystemFont, Segoe UI, sans-serif" font-size="31" font-weight="700" fill="#2D2A26">Sources + feedback</text>
  <circle cx="120" cy="459" r="13" fill="#D4556B" />
  <circle cx="120" cy="521" r="13" fill="#5B7FA5" />
  <circle cx="120" cy="583" r="13" fill="#5A9E8F" />
  
    <g filter="url(#softShadow)">
      <rect x="612" y="420" width="340" height="420" rx="24" fill="#FFFFFF" stroke="#E8E4E0" />
      <rect x="612" y="420" width="340" height="72" rx="24" fill="#F5F3F0" />
      <circle cx="646" cy="456" r="8" fill="#FF5F57" />
      <circle cx="670" cy="456" r="8" fill="#FFBD2E" />
      <circle cx="694" cy="456" r="8" fill="#28C840" />
      <text x="738" y="464" font-family="Libre Franklin, Inter, -apple-system, BlinkMacSystemFont, Segoe UI, sans-serif" font-size="20" font-weight="700" fill="#2D2A26">Paper plan</text>
      <rect x="660" y="536" width="244" height="18" rx="9" fill="#E8E4E0" />
      <rect x="660" y="580" width="160" height="16" rx="8" fill="#F1ECE2" />
      <rect x="660" y="614" width="210" height="16" rx="8" fill="#F1ECE2" />
      <rect x="660" y="670" width="244" height="108" rx="18" fill="#FAFAF8" stroke="#E8E4E0" />
      <text x="690" y="725" font-family="Source Serif 4, Georgia, serif" font-size="28" font-weight="700" fill="#2D2A26">Working thesis</text>
      <rect x="690" y="754" width="130" height="12" rx="6" fill="#D4556B" opacity=".65" />
      <rect x="690" y="784" width="170" height="12" rx="6" fill="#5B7FA5" opacity=".55" />
      <rect x="690" y="814" width="80" height="12" rx="6" fill="#5A9E8F" opacity=".55" />
    </g>
  
  <rect x="120" y="852" width="362" height="70" rx="35" fill="#2D2A26" />
  <text x="154" y="897" font-family="Libre Franklin, Inter, -apple-system, BlinkMacSystemFont, Segoe UI, sans-serif" font-size="25" font-weight="800" fill="#FFFFFF">scholarmark.ai/summer</text>
  
    <rect x="520" y="862" width="280" height="54" rx="27" fill="#F5F3F0" stroke="#E8E4E0" />
    <text x="548" y="897" font-family="Libre Franklin, Inter, -apple-system, BlinkMacSystemFont, Segoe UI, sans-serif" font-size="21" font-weight="700" fill="#2D2A26">early access</text>
  
  <text x="120" y="958" font-family="Libre Franklin, Inter, -apple-system, BlinkMacSystemFont, Segoe UI, sans-serif" font-size="22" font-weight="600" fill="#8A8580">For rising juniors and seniors starting big papers next year.</text>
</svg>