<?xml version="1.0" encoding="UTF-8"?>
<svg xmlns="http://www.w3.org/2000/svg" width="1200" height="627" viewBox="0 0 1200 627">
  
    <defs>
      <filter id="softShadow" x="-20%" y="-20%" width="140%" height="150%">
        <feDropShadow dx="0" dy="24" stdDeviation="28" flood-color="#2D2A26" flood-opacity=".12"/>
      </filter>
      <filter id="smallShadow" x="-20%" y="-20%" width="140%" height="150%">
        <feDropShadow dx="0" dy="12" stdDeviation="18" flood-color="#2D2A26" flood-opacity=".10"/>
      </filter>
    </defs>
  
  <rect width="1200" height="627" fill="#FAFAF8" />
  <rect x="48" y="48" width="1104" height="531" rx="34" fill="#FFFFFF" stroke="#E8E4E0" />
  <text x="94" y="122" font-family="Libre Franklin, Inter, -apple-system, BlinkMacSystemFont, Segoe UI, sans-serif" font-size="30" font-weight="900" fill="#2D2A26">ScholarMark</text>
  <text x="94" y="212" font-family="Source Serif 4, Georgia, serif" font-size="68" font-weight="900" fill="#2D2A26">Do not start your</text>
  <text x="94" y="292" font-family="Source Serif 4, Georgia, serif" font-size="68" font-weight="900" fill="#D4556B">big paper from zero.</text>
  <text x="94" y="358" font-family="Libre Franklin, Inter, -apple-system, BlinkMacSystemFont, Segoe UI, sans-serif" font-size="28" font-weight="650" fill="#8A8580">For thesis, capstone, honors,</text>
  <text x="94" y="396" font-family="Libre Franklin, Inter, -apple-system, BlinkMacSystemFont, Segoe UI, sans-serif" font-size="28" font-weight="650" fill="#8A8580">and research-heavy writing.</text>
  <rect x="94" y="468" width="392" height="64" rx="32" fill="#2D2A26" />
  <text x="134" y="510" font-family="Libre Franklin, Inter, -apple-system, BlinkMacSystemFont, Segoe UI, sans-serif" font-size="24" font-weight="900" fill="#FFFFFF">scholarmark.ai/summer</text>
  
    <g filter="url(#softShadow)">
      <rect x="750" y="122" width="300" height="340" rx="24" fill="#FFFFFF" stroke="#E8E4E0" />
      <rect x="750" y="122" width="300" height="72" rx="24" fill="#F5F3F0" />
      <circle cx="784" cy="158" r="8" fill="#FF5F57" />
      <circle cx="808" cy="158" r="8" fill="#FFBD2E" />
      <circle cx="832" cy="158" r="8" fill="#28C840" />
      <text x="876" y="166" font-family="Libre Franklin, Inter, -apple-system, BlinkMacSystemFont, Segoe UI, sans-serif" font-size="20" font-weight="700" fill="#2D2A26">Outline</text>
      <rect x="798" y="238" width="204" height="18" rx="9" fill="#E8E4E0" />
      <rect x="798" y="282" width="120" height="16" rx="8" fill="#F1ECE2" />
      <rect x="798" y="316" width="170" height="16" rx="8" fill="#F1ECE2" />
      <rect x="798" y="372" width="204" height="88" rx="18" fill="#FAFAF8" stroke="#E8E4E0" />
      <text x="828" y="427" font-family="Source Serif 4, Georgia, serif" font-size="28" font-weight="700" fill="#2D2A26">Working thesis</text>
      <rect x="828" y="456" width="90" height="12" rx="6" fill="#D4556B" opacity=".65" />
      <rect x="828" y="486" width="130" height="12" rx="6" fill="#5B7FA5" opacity=".55" />
      <rect x="828" y="516" width="40" height="12" rx="6" fill="#5A9E8F" opacity=".55" />
    </g>
  
</svg>