<?xml version="1.0" encoding="UTF-8"?>
<svg xmlns="http://www.w3.org/2000/svg" width="1080" height="1920" viewBox="0 0 1080 1920">
  
    <defs>
      <filter id="softShadow" x="-20%" y="-20%" width="140%" height="150%">
        <feDropShadow dx="0" dy="24" stdDeviation="28" flood-color="#2D2A26" flood-opacity=".12"/>
      </filter>
      <filter id="smallShadow" x="-20%" y="-20%" width="140%" height="150%">
        <feDropShadow dx="0" dy="12" stdDeviation="18" flood-color="#2D2A26" flood-opacity=".10"/>
      </filter>
    </defs>
  
  <rect width="1080" height="1920" fill="#FAFAF8" />
  <rect x="54" y="54" width="972" height="1812" rx="58" fill="#FFFFFF" stroke="#E8E4E0" />
  <text x="108" y="146" font-family="Libre Franklin, Inter, -apple-system, BlinkMacSystemFont, Segoe UI, sans-serif" font-size="34" font-weight="800" fill="#2D2A26">ScholarMark</text>
  <text x="108" y="235" font-family="Libre Franklin, Inter, -apple-system, BlinkMacSystemFont, Segoe UI, sans-serif" font-size="26" font-weight="800" fill="#D4556B">SUMMER THESIS HEAD START</text>
  <text x="108" y="338" font-family="Source Serif 4, Georgia, serif" font-size="92" font-weight="800" fill="#2D2A26">Future you</text>
  <text x="108" y="438" font-family="Source Serif 4, Georgia, serif" font-size="92" font-weight="800" fill="#2D2A26">wants an</text>
  <text x="108" y="538" font-family="Source Serif 4, Georgia, serif" font-size="92" font-weight="800" fill="#5B7FA5">outline.</text>
  
    <g filter="url(#softShadow)">
      <rect x="120" y="650" width="840" height="610" rx="24" fill="#FFFFFF" stroke="#E8E4E0" />
      <rect x="120" y="650" width="840" height="72" rx="24" fill="#F5F3F0" />
      <circle cx="154" cy="686" r="8" fill="#FF5F57" />
      <circle cx="178" cy="686" r="8" fill="#FFBD2E" />
      <circle cx="202" cy="686" r="8" fill="#28C840" />
      <text x="246" y="694" font-family="Libre Franklin, Inter, -apple-system, BlinkMacSystemFont, Segoe UI, sans-serif" font-size="20" font-weight="700" fill="#2D2A26">Research workspace</text>
      <rect x="168" y="766" width="744" height="18" rx="9" fill="#E8E4E0" />
      <rect x="168" y="810" width="660" height="16" rx="8" fill="#F1ECE2" />
      <rect x="168" y="844" width="710" height="16" rx="8" fill="#F1ECE2" />
      <rect x="168" y="900" width="744" height="298" rx="18" fill="#FAFAF8" stroke="#E8E4E0" />
      <text x="198" y="955" font-family="Source Serif 4, Georgia, serif" font-size="28" font-weight="700" fill="#2D2A26">Working thesis</text>
      <rect x="198" y="984" width="630" height="12" rx="6" fill="#D4556B" opacity=".65" />
      <rect x="198" y="1014" width="670" height="12" rx="6" fill="#5B7FA5" opacity=".55" />
      <rect x="198" y="1044" width="580" height="12" rx="6" fill="#5A9E8F" opacity=".55" />
    </g>
  
  <rect x="120" y="1350" width="840" height="270" rx="34" fill="#F5F3F0" stroke="#E8E4E0" />
  <text x="178" y="1418" text-anchor="start" font-family="Libre Franklin, Inter, -apple-system, BlinkMacSystemFont, Segoe UI, sans-serif" font-size="35" font-weight="800" fill="#2D2A26">1. Shape the question</text>
<text x="178" y="1472" text-anchor="start" font-family="Libre Franklin, Inter, -apple-system, BlinkMacSystemFont, Segoe UI, sans-serif" font-size="35" font-weight="800" fill="#2D2A26">2. Map your sources</text>
<text x="178" y="1526" text-anchor="start" font-family="Libre Franklin, Inter, -apple-system, BlinkMacSystemFont, Segoe UI, sans-serif" font-size="35" font-weight="800" fill="#2D2A26">3. Build the outline</text>
<text x="178" y="1580" text-anchor="start" font-family="Libre Franklin, Inter, -apple-system, BlinkMacSystemFont, Segoe UI, sans-serif" font-size="35" font-weight="800" fill="#2D2A26">4. Get revision feedback</text>
  <rect x="120" y="1692" width="472" height="76" rx="38" fill="#2D2A26" />
  <text x="166" y="1741" font-family="Libre Franklin, Inter, -apple-system, BlinkMacSystemFont, Segoe UI, sans-serif" font-size="28" font-weight="800" fill="#FFFFFF">scholarmark.ai/summer</text>
  <text x="120" y="1822" font-family="Libre Franklin, Inter, -apple-system, BlinkMacSystemFont, Segoe UI, sans-serif" font-size="26" font-weight="600" fill="#8A8580">Planning and revision support. You stay the author.</text>
</svg>